<svg width="12" height="13" viewBox="0 0 12 13" fill="none" xmlns="http://www.w3.org/2000/svg">
<path d="M10.544 5.786C10.6925 5.87858 10.8141 6.00851 10.8967 6.1628C10.9792 6.31709 11.0198 6.49034 11.0145 6.66525C11.0091 6.84015 10.9579 7.01059 10.8661 7.15953C10.7742 7.30847 10.6449 7.4307 10.491 7.514L1.476 12.396C1.32371 12.4784 1.15262 12.5199 0.979489 12.5163C0.806358 12.5128 0.637115 12.4643 0.488332 12.3757C0.339549 12.2871 0.216324 12.1614 0.130723 12.0109C0.0451216 11.8604 7.7099e-05 11.6902 0 11.517V1C-4.21001e-07 0.821497 0.0477804 0.646246 0.138382 0.492442C0.228984 0.338639 0.359103 0.211891 0.515231 0.125358C0.671359 0.038824 0.847804 -0.00434074 1.02625 0.000344611C1.20469 0.00502997 1.37863 0.0573947 1.53 0.152002L10.544 5.786Z" fill="#38393D"/>
</svg>
