<svg width="12" height="13" viewBox="0 0 12 13" fill="none" xmlns="http://www.w3.org/2000/svg">
<path d="M2.78571 0H0.928571C0.415736 0 0 0.415736 0 0.928571V12.0714C0 12.5843 0.415736 13 0.928571 13H2.78571C3.29855 13 3.71429 12.5843 3.71429 12.0714V0.928571C3.71429 0.415736 3.29855 0 2.78571 0Z" fill="#38393D"/>
<path d="M10.2139 0H8.35679C7.84396 0 7.42822 0.415736 7.42822 0.928571V12.0714C7.42822 12.5843 7.84396 13 8.35679 13H10.2139C10.7268 13 11.1425 12.5843 11.1425 12.0714V0.928571C11.1425 0.415736 10.7268 0 10.2139 0Z" fill="#38393D"/>
</svg>
